<?xml version="1.0" standalone="no"?>
<!DOCTYPE svg PUBLIC "-//W3C//DTD SVG 20010904//EN"
 "http://www.w3.org/TR/2001/REC-SVG-20010904/DTD/svg10.dtd">
<svg version="1.0" xmlns="http://www.w3.org/2000/svg"
 width="144.000000pt" height="144.000000pt" viewBox="0 0 144.000000 144.000000"
 preserveAspectRatio="xMidYMid meet">
<metadata>
Created by potrace 1.14, written by Peter Selinger 2001-2017
</metadata>
<g transform="translate(0.000000,144.000000) scale(0.100000,-0.100000)"
fill="#000000" stroke="none">
<path d="M281 1384 c-16 -7 -32 -17 -36 -24 -4 -6 -17 -15 -30 -20 -20 -8 -23
-16 -23 -60 -1 -29 -8 -62 -16 -75 -9 -14 -13 -32 -9 -42 9 -22 78 -93 91 -93
5 0 12 -11 14 -25 3 -14 2 -25 -2 -25 -4 0 -7 -6 -7 -12 -1 -7 -4 -47 -7 -88
-12 -134 -11 -138 21 -178 l30 -37 -39 -140 c-54 -195 -54 -192 -2 -301 24
-51 44 -96 44 -99 0 -3 -37 -41 -82 -84 l-81 -79 644 2 644 1 1 122 2 122 -30
6 c-23 5 -34 18 -53 58 -14 29 -40 79 -59 111 -31 53 -34 65 -30 117 4 44 1
65 -12 85 -15 22 -21 63 -24 157 0 9 -7 17 -15 17 -10 0 -15 11 -15 35 0 21
-6 37 -16 43 -9 5 -21 35 -28 69 -7 33 -25 94 -41 136 -24 66 -31 77 -56 82
-15 4 -31 15 -34 25 -3 10 -28 39 -55 63 -43 40 -58 46 -107 52 -32 4 -68 8
-80 10 -28 4 -151 -22 -184 -40 -34 -18 -155 -32 -145 -16 4 6 2 11 -4 11 -7
0 -10 6 -7 14 3 8 -1 17 -10 20 -13 5 -13 9 -2 22 16 20 19 55 5 59 -31 11
-130 10 -155 -1z"/>
</g>
</svg>
